<svg width="21" height="20" viewBox="0 0 21 20" fill="none" xmlns="http://www.w3.org/2000/svg">
<path d="M4.29175 5.83325H15.7834C16.0163 5.83326 16.2465 5.88206 16.4594 5.97651C16.6722 6.07095 16.8629 6.20895 17.0191 6.3816C17.1754 6.55425 17.2937 6.75772 17.3665 6.9789C17.4393 7.20008 17.4649 7.43406 17.4417 7.66575L16.9417 12.6658C16.9006 13.077 16.7082 13.4583 16.4017 13.7356C16.0953 14.013 15.6967 14.1666 15.2834 14.1666H7.32508C6.93964 14.1667 6.56606 14.0333 6.26795 13.789C5.96984 13.5446 5.76563 13.2045 5.69008 12.8266L4.29175 5.83325Z" stroke="#6C7275" stroke-width="1.5" stroke-linejoin="round"/>
<path d="M4.29175 5.83333L3.61675 3.13083C3.57161 2.95063 3.46754 2.79067 3.32109 2.67638C3.17463 2.56209 2.99419 2.5 2.80841 2.5H1.79175M6.79175 17.5H8.45841M13.4584 17.5H15.1251" stroke="#6C7275" stroke-width="1.5" stroke-linecap="round" stroke-linejoin="round"/>
</svg>
