<svg width="20" height="19" viewBox="0 0 20 19" fill="none" xmlns="http://www.w3.org/2000/svg">
<path d="M10 19L8.55 17.7C6.86667 16.1833 5.475 14.875 4.375 13.775C3.275 12.675 2.4 11.6875 1.75 10.8125C1.1 9.9375 0.645833 9.13334 0.3875 8.4C0.129167 7.66667 0 6.91667 0 6.15C0 4.58333 0.525 3.275 1.575 2.225C2.625 1.175 3.93333 0.650002 5.5 0.650002C6.36667 0.650002 7.19167 0.833335 7.975 1.2C8.75833 1.56667 9.43333 2.08333 10 2.75C10.5667 2.08333 11.2417 1.56667 12.025 1.2C12.8083 0.833335 13.6333 0.650002 14.5 0.650002C16.0667 0.650002 17.375 1.175 18.425 2.225C19.475 3.275 20 4.58333 20 6.15C20 6.91667 19.8708 7.66667 19.6125 8.4C19.3542 9.13334 18.9 9.9375 18.25 10.8125C17.6 11.6875 16.725 12.675 15.625 13.775C14.525 14.875 13.1333 16.1833 11.45 17.7L10 19Z" fill="#FEFEFE"/>
</svg>
