<svg width="21" height="20" viewBox="0 0 21 20" fill="none" xmlns="http://www.w3.org/2000/svg">
<path d="M17.5417 8.33324C17.5417 8.11222 17.4539 7.90026 17.2977 7.74398C17.1414 7.5877 16.9294 7.4999 16.7084 7.4999C16.4874 7.4999 16.2754 7.5877 16.1191 7.74398C15.9629 7.90026 15.8751 8.11222 15.8751 8.33324H17.5417ZM5.87507 8.33324C5.87507 8.11222 5.78727 7.90026 5.63099 7.74398C5.47471 7.5877 5.26275 7.4999 5.04173 7.4999C4.82072 7.4999 4.60876 7.5877 4.45248 7.74398C4.2962 7.90026 4.2084 8.11222 4.2084 8.33324H5.87507ZM17.7859 10.5891C17.9431 10.7409 18.1536 10.8249 18.3721 10.823C18.5906 10.8211 18.7996 10.7334 18.9541 10.5789C19.1086 10.4244 19.1962 10.2154 19.1981 9.9969C19.2 9.77841 19.116 9.5679 18.9642 9.41074L17.7859 10.5891ZM10.8751 2.4999L11.4642 1.91074C11.308 1.75451 11.096 1.66675 10.8751 1.66675C10.6541 1.66675 10.4422 1.75451 10.2859 1.91074L10.8751 2.4999ZM2.7859 9.41074C2.70631 9.48761 2.64282 9.57956 2.59915 9.68123C2.55548 9.7829 2.53249 9.89225 2.53153 10.0029C2.53056 10.1136 2.55165 10.2233 2.59355 10.3257C2.63545 10.4281 2.69733 10.5212 2.77557 10.5994C2.85382 10.6776 2.94686 10.7395 3.04927 10.7814C3.15169 10.8233 3.26142 10.8444 3.37207 10.8434C3.48272 10.8425 3.59207 10.8195 3.69374 10.7758C3.79541 10.7321 3.88736 10.6687 3.96423 10.5891L2.7859 9.41074ZM6.7084 18.3332H15.0417V16.6666H6.7084V18.3332ZM17.5417 15.8332V8.33324H15.8751V15.8332H17.5417ZM5.87507 15.8332V8.33324H4.2084V15.8332H5.87507ZM18.9642 9.41074L11.4642 1.91074L10.2859 3.08907L17.7859 10.5891L18.9642 9.41074ZM10.2859 1.91074L2.7859 9.41074L3.96423 10.5891L11.4642 3.08907L10.2859 1.91074ZM15.0417 18.3332C15.7048 18.3332 16.3407 18.0698 16.8095 17.601C17.2783 17.1322 17.5417 16.4963 17.5417 15.8332H15.8751C15.8751 16.0542 15.7873 16.2662 15.631 16.4225C15.4747 16.5788 15.2627 16.6666 15.0417 16.6666V18.3332ZM6.7084 16.6666C6.48739 16.6666 6.27543 16.5788 6.11915 16.4225C5.96287 16.2662 5.87507 16.0542 5.87507 15.8332H4.2084C4.2084 16.4963 4.47179 17.1322 4.94063 17.601C5.40947 18.0698 6.04536 18.3332 6.7084 18.3332V16.6666Z" fill="#232627"/>
</svg>
