<svg width="64" height="64" viewBox="0 0 64 64" fill="none" xmlns="http://www.w3.org/2000/svg">
<path d="M9.23706 54.7627C13.1464 58.6667 19.4291 58.6667 31.9997 58.6667C44.5704 58.6667 50.8557 58.6667 54.7597 54.7601C58.1491 51.3734 58.5997 46.1921 58.6584 36.6667H50.2397C47.6424 36.6667 46.9624 36.7094 46.3944 36.9707C45.8237 37.2347 45.3491 37.7227 43.6584 39.6907L41.8104 41.8507C40.4717 43.4134 39.4104 44.6534 37.9437 45.3281C36.4771 46.0027 34.8451 46.0027 32.7864 46.0001H31.2131C29.1544 46.0001 27.5224 46.0054 26.0557 45.3281C24.5891 44.6534 23.5277 43.4134 22.1891 41.8481L20.3411 39.6934C18.6504 37.7201 18.1757 37.2347 17.6051 36.9734C17.0371 36.7094 16.3571 36.6667 13.7597 36.6667H5.34106C5.4024 46.1921 5.84773 51.3761 9.23706 54.7627Z" fill="#232627"/>
<path fill-rule="evenodd" clip-rule="evenodd" d="M19.3333 18.6667C19.3333 18.1363 19.544 17.6276 19.919 17.2525C20.2941 16.8775 20.8028 16.6667 21.3333 16.6667H42.6666C43.197 16.6667 43.7057 16.8775 44.0808 17.2525C44.4559 17.6276 44.6666 18.1363 44.6666 18.6667C44.6666 19.1972 44.4559 19.7059 44.0808 20.081C43.7057 20.456 43.197 20.6667 42.6666 20.6667H21.3333C20.8028 20.6667 20.2941 20.456 19.919 20.081C19.544 19.7059 19.3333 19.1972 19.3333 18.6667Z" fill="#232627"/>
<path fill-rule="evenodd" clip-rule="evenodd" d="M31.9999 5.33325C44.5706 5.33325 50.8559 5.33325 54.7599 9.23725C58.6666 13.1466 58.6666 19.4293 58.6666 31.9999V32.6666H49.8826C47.8212 32.6666 46.1893 32.6613 44.7226 33.3386C43.2559 34.0133 42.1946 35.2533 40.8559 36.8186L39.0079 38.9733C37.3173 40.9466 36.8426 41.4319 36.2719 41.6933C35.7039 41.9573 35.0239 41.9999 32.4266 41.9999H31.5733C28.9759 41.9999 28.2959 41.9573 27.7279 41.6959C27.1572 41.4319 26.6826 40.9439 24.9919 38.9759L23.1439 36.8159C21.8053 35.2533 20.7439 34.0133 19.2773 33.3386C17.8106 32.6639 16.1786 32.6639 14.1199 32.6666H5.33325V31.9999C5.33325 19.4293 5.33325 13.1439 9.23725 9.23725C13.1466 5.33325 19.4293 5.33325 31.9999 5.33325ZM24.6666 27.9999C24.6666 27.4695 24.8773 26.9608 25.2524 26.5857C25.6274 26.2106 26.1362 25.9999 26.6666 25.9999H37.3333C37.8637 25.9999 38.3724 26.2106 38.7475 26.5857C39.1225 26.9608 39.3332 27.4695 39.3332 27.9999C39.3332 28.5304 39.1225 29.0391 38.7475 29.4141C38.3724 29.7892 37.8637 29.9999 37.3333 29.9999H26.6666C26.1362 29.9999 25.6274 29.7892 25.2524 29.4141C24.8773 29.0391 24.6666 28.5304 24.6666 27.9999Z" fill="#232627"/>
</svg>
