<svg width="14" height="14" viewBox="0 0 14 14" fill="none" xmlns="http://www.w3.org/2000/svg">
<path d="M6.53834 0.691936C6.70914 0.28129 7.29086 0.281288 7.46166 0.691934L8.99874 4.38753C9.07075 4.56065 9.23355 4.67893 9.42045 4.69391L13.4102 5.01377C13.8535 5.04931 14.0332 5.60256 13.6955 5.8919L10.6557 8.49575C10.5133 8.61773 10.4512 8.80912 10.4947 8.99149L11.4234 12.8848C11.5265 13.3174 11.0559 13.6593 10.6764 13.4275L7.26063 11.3412C7.10062 11.2434 6.89938 11.2434 6.73937 11.3412L3.32363 13.4275C2.94408 13.6593 2.47345 13.3174 2.57665 12.8848L3.50534 8.9915C3.54884 8.80912 3.48665 8.61773 3.34426 8.49575L0.304527 5.8919C-0.0332418 5.60256 0.14652 5.04931 0.589847 5.01377L4.57955 4.69391C4.76645 4.67893 4.92925 4.56065 5.00126 4.38753L6.53834 0.691936Z" fill="#343839"/>
</svg>
